HIERARCHY
ROOT Hips
{
  OFFSET -31.5692 30.0904 122.763
  CHANNELS 6 Xposition Yposition Zposition Zrotation Xrotation Yrotation
  JOINT LeftUpLeg
  {
    OFFSET 8.64259 1.95398 -2.38835
    CHANNELS 3 Zrotation Xrotation Yrotation
    JOINT LeftLeg
    {
      OFFSET 43.7702 0 0
      CHANNELS 3 Zrotation Xrotation Yrotation
      JOINT LeftFoot
      {
        OFFSET 40.6238 0 0
        CHANNELS 3 Zrotation Xrotation Yrotation
        JOINT LeftToeBase
        {
          OFFSET 12.7242 0 0
          CHANNELS 3 Zrotation Xrotation Yrotation
          End Site
          {
            OFFSET 0 0 0
          }
        }
      }
    }
  }
  JOINT RightUpLeg
  {
    OFFSET -8.2249 1.95398 -2.59336
    CHANNELS 3 Zrotation Xrotation Yrotation
    JOINT RightLeg
    {
      OFFSET 43.5653 0 0
      CHANNELS 3 Zrotation Xrotation Yrotation
      JOINT RightFoot
      {
        OFFSET 40.6238 0 0
        CHANNELS 3 Zrotation Xrotation Yrotation
        JOINT RightToeBase
        {
          OFFSET 12.7242 0 0
          CHANNELS 3 Zrotation Xrotation Yrotation
          End Site
          {
            OFFSET 0 0 0
          }
        }
      }
    }
  }
  JOINT Spine
  {
    OFFSET 0.165834 0.87714 6.61349
    CHANNELS 3 Zrotation Xrotation Yrotation
    JOINT Spine1
    {
      OFFSET 7.38963 1.71661e-005 0
      CHANNELS 3 Zrotation Xrotation Yrotation
      JOINT Spine2
      {
        OFFSET 11.9445 1.14441e-005 0
        CHANNELS 3 Zrotation Xrotation Yrotation
        JOINT Spine3
        {
          OFFSET 14.7254 4.19617e-005 0
          CHANNELS 3 Zrotation Xrotation Yrotation
          JOINT Spine4
          {
            OFFSET 10.9679 0 0
            CHANNELS 3 Zrotation Xrotation Yrotation
            JOINT RightShoulder
            {
              OFFSET 2.46616 -1.6653 3.69651
              CHANNELS 3 Zrotation Xrotation Yrotation
              JOINT RightArm
              {
                OFFSET 13.0012 0 0
                CHANNELS 3 Zrotation Xrotation Yrotation
                JOINT RightForeArm
                {
                  OFFSET 28.7848 1.62311e-005 0
                  CHANNELS 3 Zrotation Xrotation Yrotation
                  JOINT RightHand
                  {
                    OFFSET 26.5688 1.62095e-005 0
                    CHANNELS 3 Zrotation Xrotation Yrotation
                    End Site
                    {
                      OFFSET 0 0 0
                    }
                  }
                }
              }
            }
            JOINT LeftShoulder
            {
              OFFSET 2.38034 -1.29275 -3.7523
              CHANNELS 3 Zrotation Xrotation Yrotation
              JOINT LeftArm
              {
                OFFSET 16.3182 6.07031e-005 0
                CHANNELS 3 Zrotation Xrotation Yrotation
                JOINT LeftForeArm
                {
                  OFFSET 27.0901 0 0
                  CHANNELS 3 Zrotation Xrotation Yrotation
                  JOINT LeftHand
                  {
                    OFFSET 24.5451 1.51738e-005 0
                    CHANNELS 3 Zrotation Xrotation Yrotation
                    End Site
                    {
                      OFFSET 0 0 0
                    }
                  }
                }
              }
            }
            JOINT Neck
            {
              OFFSET 5.0226 -0.0266342 0
              CHANNELS 3 Zrotation Xrotation Yrotation
              JOINT Head
              {
                OFFSET 6.69364 2.86102e-005 0
                CHANNELS 3 Zrotation Xrotation Yrotation
                End Site
                {
                  OFFSET 0 0 0
                }
              }
            }
          }
        }
      }
    }
  }
}
MOTION
Frames:	16
Frame Time:	0.0416667
-5.70057 97.9348 26.8297 -170.671 -87.1813 -164.163 -167.167 12.2079 106.081 -33.0522 18.0077 1.29557 79.6786 13.0928 -3.83766 27.1208 -5.83096 13.5821 178.075 2.79347 104.08 -23.5422 -3.08514 2.26855 76.2889 -6.72908 -0.807482 18.2277 3.17639 5.89938 0.388009 7.75925 -91.1065 11.3526 0.256222 -2.22933 -0.320214 0.157877 -2.23845 -22.8421 0.914242 -2.04941 -2.82946 0.914235 -2.04942 89.4107 -32.3107 -107.033 30.7731 -7.21841 -7.86348 6.4256 -36.9845 -14.1869 -24.379 -0.836751 -7.53248 -89.4398 -53.6201 80.2838 -19.7654 17.7702 -19.0053 -6.54927 12.6325 -1.81645 5.91961 -0.334409 -13.459 10.0724 -0.706267 -12.6255 -3.8705 2.17348 0.721363 
-5.75315 97.9302 26.3432 -153.286 -87.0886 -146.568 -167.09 12.6634 106.197 -33.2001 17.2358 1.24891 79.7651 13.1807 -4.00692 26.8697 -6.06766 13.7683 178.606 2.98667 104.521 -22.7407 -3.3061 1.69749 75.8841 -5.92082 -0.410073 18.0886 3.31745 5.63405 0.323115 7.73811 -91.1023 11.3937 0.12864 -2.20833 -0.279113 0.0313516 -2.21185 -22.8007 0.786247 -2.06768 -2.78804 0.786247 -2.06769 88.9944 -32.9431 -107.587 29.7817 -6.81355 -8.36084 6.63387 -37.0761 -13.5483 -24.6854 -0.825499 -7.61541 -88.9181 -53.3776 80.9901 -19.7617 18.2342 -19.7071 -6.84156 13.5213 -1.29952 8.48787 -0.411791 -11.9132 9.66895 -0.951915 -14.74 -4.17602 2.36999 -0.293397 
-5.68715 97.8745 25.8549 -141.614 -87.1149 -135.033 -167.163 13.287 105.909 -33.3997 16.8243 1.12519 79.6228 13.1886 -3.86906 27.2721 -5.87422 13.9383 178.568 3.48653 104.354 -22.3373 -3.77542 1.4866 75.7915 -5.72702 -1.00401 18.0963 2.93325 6.85818 0.241479 7.73151 -91.0822 11.4056 -0.0245481 -2.15298 -0.267106 -0.119249 -2.14983 -22.7888 0.623515 -2.06091 -2.77613 0.623508 -2.06092 88.7799 -32.9607 -107.986 29.6069 -6.67698 -8.55158 6.49926 -38.3788 -13.5313 -24.9529 -0.776647 -8.1809 -89.0682 -53.4015 80.7774 -19.6965 18.4887 -20.0759 -6.89915 13.4837 -0.834943 6.78666 -0.430265 -13.8168 9.87726 -1.52296 -15.7851 -4.459 2.08106 -0.782406 
-5.63954 97.8234 25.2462 -132.009 -86.5016 -125.453 -167.161 13.5877 105.764 -33.7975 16.1684 1.08448 79.5151 13.1494 -3.94855 27.5992 -5.92706 14.6124 178.566 4.02683 104.267 -22.8052 -4.11745 1.32203 75.5927 -5.33456 -0.298793 18.723 2.73896 6.65356 0.166799 7.76217 -91.0491 11.3434 -0.157078 -2.0734 -0.329166 -0.248162 -2.06449 -22.8515 0.473191 -2.0248 -2.83884 0.473187 -2.02482 88.7485 -33.1795 -107.961 29.5557 -7.19491 -8.60932 7.26754 -37.7788 -13.0438 -24.7233 -0.61568 -8.97774 -88.7359 -52.9044 81.1667 -20.0473 18.8815 -19.8475 -6.65158 11.6011 -1.08482 7.28789 -0.524508 -13.7107 10.0886 -1.7716 -16.9449 -4.64358 2.13333 -0.544954 
-5.43677 97.9149 24.9529 -125.459 -85.1911 -118.607 -166.86 13.1474 105.964 -33.801 14.6401 1.0089 79.6966 13.0074 -4.60122 27.7867 -5.87985 14.8055 178.595 3.54078 104.233 -22.4054 -5.5281 1.32903 75.1008 -5.46066 -0.643655 18.7423 2.54668 7.27676 0.209407 7.80552 -91.0821 11.257 -0.086863 -2.14584 -0.415661 -0.181192 -2.13995 -22.9373 0.561921 -2.07282 -2.92462 0.561935 -2.07281 88.8588 -32.986 -107.827 29.8628 -6.78235 -8.23643 6.91561 -38.2533 -13.101 -25.2644 -0.779495 -8.12605 -88.7624 -52.8983 81.1273 -20.1953 17.8537 -19.7796 -6.8714 15.4845 -0.59362 5.98134 -0.275639 -13.7295 9.22359 -1.57739 -17.8384 -3.21258 2.38483 -0.117791 
-5.18257 97.903 24.8963 -123.503 -85.1675 -116.466 -167.026 13.4147 105.914 -34.1594 14.622 1.07047 79.8586 13.1725 -4.31331 27.4618 -6.02343 14.6272 178.586 3.5118 104.162 -22.0087 -5.51749 1.36834 75.431 -5.85043 -0.998625 18.5223 2.3613 8.19308 0.168657 7.80893 -91.1232 11.2488 -0.18698 -2.21773 -0.424005 -0.284377 -2.20737 -22.9444 0.488015 -2.17146 -2.93179 0.488019 -2.17146 88.9593 -32.9124 -107.664 29.7521 -6.6484 -8.28293 6.95059 -38.7659 -12.8986 -24.6249 -0.570056 -9.483 -88.9939 -53.4028 80.8855 -19.4759 18.2449 -20.1816 -7.17248 15.0331 -0.825446 6.57495 -0.317685 -13.3262 9.52289 -1.66433 -18.0211 -3.28756 2.38744 -0.435736 
-4.72208 97.9943 24.8954 -122.821 -85.0193 -115.822 -167.238 13.1486 105.48 -34.0622 14.1762 1.10851 79.7909 13.1947 -4.12165 27.5331 -6.06878 14.8607 178.154 3.27539 103.51 -21.7143 -5.54481 1.60529 75.0752 -5.50181 0.312845 19.7327 2.18296 7.14358 0.167654 7.80692 -91.158 11.2523 -0.205213 -2.28514 -0.420596 -0.305563 -2.27392 -22.9401 0.490868 -2.24124 -2.92744 0.490866 -2.24125 89.0532 -32.7519 -107.548 29.6412 -7.03339 -8.19387 7.04783 -37.7943 -13.2579 -24.8162 -0.542051 -9.39218 -89.3287 -53.7057 80.4598 -19.6115 18.2369 -20.3318 -7.53514 15.4874 -0.340598 6.72814 -0.312606 -13.2406 9.20669 -1.75177 -17.6913 -2.86031 2.17192 -1.23526 
-3.96292 98.1646 25.0574 -123.228 -84.803 -116.42 -167.595 12.3053 104.67 -33.5444 13.2813 1.18116 79.7576 13.1934 -4.1003 27.6702 -6.04812 15.0372 177.77 2.78744 102.622 -21.3218 -5.93446 1.61857 74.4034 -5.08249 1.45867 21.0248 1.98642 5.96938 0.180552 7.81431 -91.156 11.2378 -0.178463 -2.28393 -0.43511 -0.278782 -2.27387 -22.9547 0.516028 -2.23204 -2.94203 0.516017 -2.23205 88.9457 -32.977 -107.666 29.5918 -6.77023 -8.38379 7.23115 -36.9258 -12.7365 -24.8548 -0.68312 -8.38785 -89.4734 -53.6527 80.2418 -19.3557 18.6856 -20.7121 -7.5433 15.6556 -0.37886 6.6896 -0.22335 -12.4134 8.77865 -1.82583 -18.2976 -2.67907 2.1658 -0.835549 
-2.84037 98.4651 25.2931 -124.086 -84.4547 -117.86 -168.45 10.7033 103.041 -32.3711 11.4439 1.39649 79.5883 13.086 -4.28907 27.4852 -6.34294 15.4686 177.353 2.14726 101.371 -20.8063 -7.06152 1.35214 74.099 -5.45176 0.17523 20.5639 1.66911 7.78737 0.222204 7.83967 -91.1266 11.1883 -0.0814227 -2.23471 -0.484533 -0.17968 -2.22897 -23.005 0.593803 -2.15595 -2.99237 0.593795 -2.15596 88.692 -33.048 -108.118 29.423 -6.85677 -8.18543 6.90586 -38.5711 -13.2641 -24.1414 -0.79158 -8.17832 -89.4714 -53.5717 80.2291 -19.8437 18.5896 -20.9947 -7.53923 15.9328 -0.521634 6.15232 -0.182203 -12.6252 8.69457 -1.79361 -18.0594 -2.78777 2.13034 -1.23066 
-1.47939 98.812 25.6098 -127.88 -83.9661 -122.515 -169.136 8.51246 101.158 -30.7003 10.1238 1.41784 79.1704 12.9277 -4.14518 26.0319 -6.70884 14.0001 176.777 1.17539 99.6168 -20.3435 -8.32724 0.933498 73.4012 -5.41808 -0.151576 21.8093 1.28679 7.37374 0.251168 7.88304 -91.0638 11.103 0.00626446 -2.11771 -0.569656 -0.08692 -2.11594 -23.0919 0.642303 -2.01801 -3.07924 0.642306 -2.018 88.6718 -33.1666 -108.11 29.4872 -6.97433 -8.4514 7.12816 -37.3633 -13.118 -24.395 -0.505123 -9.56793 -89.3035 -53.2886 80.417 -20.2613 18.8901 -20.9454 -7.29375 16.3548 -1.20486 6.1795 -0.189528 -12.8091 8.04645 -1.98272 -19.2252 -2.43907 2.08919 -0.737853 
0.0474643 99.3015 25.9252 -129.429 -83.5359 -124.888 -169.278 6.54119 99.4306 -28.5073 9.65592 0.972851 78.3086 12.5049 -3.4033 25.128 -6.9571 13.1869 175.964 0.0922532 97.648 -19.1476 -9.6357 0.739378 72.4465 -5.4999 -0.394623 22.7103 0.966981 7.21385 0.266842 7.89951 -91.0234 11.0707 0.0565444 -2.04198 -0.601829 -0.0333622 -2.0425 -23.1251 0.667515 -1.93067 -3.11249 0.667513 -1.93067 88.6264 -33.2426 -108.167 29.3416 -6.93741 -8.61294 7.27664 -37.5392 -12.8542 -24.9108 -0.812593 -7.78949 -89.4195 -53.3894 80.2687 -20.5726 18.9725 -20.7258 -7.47353 16.9428 -0.995431 5.94982 -0.149725 -12.849 8.07684 -1.97548 -19.6936 -2.02277 2.19233 -1.30017 
1.72601 99.8515 26.1977 -132.078 -83.5214 -128.566 -169.134 4.53273 97.7221 -25.6663 10.1625 0.171714 77.1066 11.8101 -2.54867 23.5902 -7.37085 11.8512 175.145 -0.726105 95.5714 -18.1421 -10.4555 0.391118 71.3737 -5.28124 0.0208532 23.5636 0.932565 5.99084 0.229616 7.90536 -90.9033 11.0601 0.0381681 -1.80118 -0.612045 -0.0411223 -1.80112 -23.138 0.577652 -1.70649 -3.12533 0.577654 -1.7065 88.3281 -33.4977 -108.627 29.4884 -6.9439 -8.66022 7.28282 -37.0787 -12.8743 -24.5151 -0.872705 -7.34679 -89.3167 -52.8337 80.3109 -20.6711 19.0348 -20.7383 -7.58106 17.1825 -0.724755 5.02524 -0.0609643 -13.0848 8.87179 -2.46214 -20.7939 -2.01127 2.08903 -1.86598 
3.592 100.288 26.3739 -134.663 -84.0643 -132.107 -169.923 3.03026 95.6097 -22.9422 10.2986 -0.164027 76.0554 11.0576 -2.06893 22.1849 -7.81549 10.8491 174.129 -0.939501 93.3961 -17.1173 -10.726 0.285324 70.2867 -5.02423 0.681095 24.7985 0.62971 5.13268 0.194114 7.85514 -90.7847 11.1611 0.021758 -1.56416 -0.510801 -0.0470898 -1.56362 -23.0389 0.490794 -1.48534 -3.0263 0.490791 -1.48535 88.1113 -33.4224 -109.062 30.3442 -6.96516 -8.60143 6.50192 -36.8681 -13.8168 -24.2253 -0.782747 -7.82745 -89.1077 -53.0127 80.6478 -20.2639 18.897 -20.7697 -7.52904 17.3506 -0.547934 5.22389 -0.0600006 -12.8911 9.84376 -3.03925 -21.0312 -2.18249 1.7521 -2.74374 
5.43119 100.66 26.4586 -136.707 -84.8183 -135.576 -171.711 1.29273 92.7735 -19.7526 9.33549 -0.00124451 74.6431 9.92367 -1.59085 20.8206 -8.28087 9.99996 172.778 0.0156051 90.665 -16.7208 -11.3624 0.253652 69.4481 -5.16306 0.644236 26.0267 0.137199 5.04703 0.209417 7.77439 -90.5652 11.3242 0.153383 -1.14041 -0.347218 0.103045 -1.14605 -22.879 0.489008 -1.0416 -2.8663 0.489006 -1.04162 88.0207 -33.7687 -109.095 30.8359 -7.49177 -8.91069 7.02174 -37.2723 -13.4676 -24.4104 -1.12962 -5.89108 -89.0819 -52.1573 80.5231 -20.8253 18.7824 -20.4502 -7.55691 16.8666 -0.312706 4.10121 -0.0396228 -14.0722 10.6036 -3.75759 -22.0767 -1.76861 1.43352 -2.38238 
7.19764 100.967 26.6568 -142.711 -84.3823 -142.409 -172.705 -0.969752 90.6957 -16.8003 8.62244 0.111161 73.8979 8.71577 -1.52995 18.7838 -9.22837 9.3305 171.357 -1.30218 88.6683 -16.6299 -12.572 0.237715 68.8423 -5.52533 1.09515 27.3643 -0.107029 3.56808 0.245381 7.77437 -90.466 11.3252 0.271129 -0.955117 -0.346107 0.228836 -0.966125 -22.8792 0.545635 -0.829494 -2.86657 0.545641 -0.829485 88.2424 -32.6597 -109.119 32.3415 -8.11511 -9.0231 7.33861 -37.2398 -13.297 -25.0866 -0.57812 -9.04022 -89.1004 -52.8283 80.623 -20.6308 19.1002 -18.8916 -6.71083 14.0016 -1.89419 4.8369 -0.206738 -13.9106 11.1187 -3.61684 -20.4307 -2.32712 1.28137 -3.26163 
8.93044 100.853 26.547 -145.814 -83.837 -146.263 -173.327 -2.0337 88.8221 -16.1983 8.26468 -0.0320674 73.9043 7.7511 -1.2798 17.3552 -9.69985 8.49482 170.102 -0.0664849 86.5001 -18.8215 -13.8827 0.0420705 68.9792 -6.04157 1.81318 29.2177 -0.617238 2.10599 0.254376 7.75282 -90.3129 11.3691 0.360286 -0.659185 -0.30198 0.330924 -0.674396 -22.8366 0.541738 -0.520436 -2.82399 0.541739 -0.52043 88.3887 -32.4612 -108.921 33.3425 -8.47854 -9.22322 6.93972 -37.0085 -13.9246 -26.5506 -0.620583 -8.62942 -89.1878 -53.2492 80.5767 -20.7616 18.3225 -15.9106 -5.40333 11.0525 -3.89496 3.25528 -0.259705 -15.9509 10.9528 -3.25905 -18.9716 -1.95932 1.23467 -3.64593 
